<?xml version="1.0" standalone="no"?>
<!DOCTYPE svg PUBLIC "-//W3C//DTD SVG 20010904//EN"
 "http://www.w3.org/TR/2001/REC-SVG-20010904/DTD/svg10.dtd">
<svg version="1.0" xmlns="http://www.w3.org/2000/svg"
 width="1024.000000pt" height="1024.000000pt" viewBox="0 0 1024.000000 1024.000000"
 preserveAspectRatio="xMidYMid meet">

<g transform="translate(0.000000,1024.000000) scale(0.100000,-0.100000)"
fill="#000000" stroke="none">
<path d="M3395 8516 c-144 -53 -214 -93 -278 -159 -62 -64 -117 -150 -136
-211 -6 -20 -15 -51 -21 -69 -14 -45 -24 -235 -16 -280 8 -41 32 -57 139 -92
40 -14 57 -24 55 -35 -7 -34 -67 -17 -162 45 l-29 19 7 -29 c4 -17 9 -52 12
-80 6 -56 15 -86 51 -165 14 -30 34 -77 45 -105 35 -91 80 -173 116 -212 225
-243 221 -240 405 -264 93 -12 108 -21 122 -79 5 -20 0 -31 -20 -50 -29 -27
-55 -80 -55 -111 0 -11 -19 -32 -42 -50 -24 -17 -56 -49 -71 -72 -15 -23 -44
-58 -63 -78 -19 -19 -32 -38 -28 -41 3 -4 -3 -11 -14 -17 -11 -6 -22 -7 -26
-4 -3 3 -6 -1 -6 -11 0 -13 -5 -16 -20 -11 -11 4 -20 2 -20 -4 0 -18 52 -38
130 -51 41 -6 136 -27 210 -45 74 -18 169 -39 210 -46 50 -9 66 -15 47 -17
-15 -2 -51 2 -80 8 -29 6 -73 13 -99 15 -26 3 -75 14 -110 26 -82 28 -283 70
-301 64 -17 -7 -87 -90 -87 -104 0 -5 -7 -14 -14 -18 -8 -5 -26 -33 -40 -63
-15 -30 -42 -77 -61 -104 -19 -26 -33 -51 -30 -56 16 -26 -101 -177 -215 -276
-14 -12 -46 -64 -72 -115 -41 -81 -58 -103 -123 -159 -48 -41 -89 -87 -112
-125 -19 -33 -50 -78 -68 -101 -19 -22 -59 -87 -90 -145 -32 -57 -61 -108 -65
-114 -5 -5 -16 -30 -25 -55 -50 -134 -83 -213 -116 -281 -21 -42 -43 -105 -50
-140 -6 -35 -23 -91 -37 -124 -14 -33 -33 -89 -43 -125 -10 -36 -32 -114 -50
-175 -23 -83 -33 -140 -38 -230 -3 -66 -10 -126 -15 -134 -11 -17 -18 -177
-19 -396 -1 -170 15 -371 31 -402 6 -11 16 -51 22 -88 6 -38 17 -80 25 -94 18
-35 76 -186 115 -301 47 -137 61 -171 71 -165 5 3 15 -9 22 -27 8 -18 29 -51
48 -74 19 -22 50 -63 69 -91 19 -29 45 -54 57 -57 13 -4 35 -29 53 -62 36 -61
68 -96 82 -88 5 4 41 -27 80 -67 59 -62 72 -72 81 -58 8 14 15 11 44 -22 42
-47 122 -99 152 -99 32 0 121 -45 158 -80 18 -16 39 -30 47 -30 20 0 20 1 -4
-60 -21 -54 -25 -96 -11 -119 8 -12 16 -13 48 -2 21 7 48 11 58 9 14 -2 19 2
17 12 -15 62 -13 117 3 133 17 17 50 23 58 10 3 -5 8 -43 12 -85 6 -69 5 -78
-10 -78 -9 0 -15 -6 -13 -12 7 -21 229 -23 290 -2 33 11 63 14 97 9 54 -7 104
9 135 44 15 16 31 21 71 21 39 0 69 9 125 37 l75 36 91 -11 c97 -11 132 -24
177 -67 22 -22 33 -25 62 -19 19 3 35 10 35 15 0 12 -21 11 -39 0 -12 -7 -21
3 -41 43 -15 29 -30 64 -33 78 -8 29 -41 70 -50 61 -4 -3 -10 3 -13 13 -4 10
-14 28 -23 38 -15 18 -14 19 26 12 54 -8 93 -26 93 -42 0 -20 28 -24 46 -7 11
12 14 26 10 52 l-6 36 21 -27 c36 -48 59 -30 54 40 -2 30 9 44 17 23 2 -6 23
-12 46 -15 58 -7 131 -55 165 -110 52 -83 149 -156 259 -197 29 -10 53 -19 54
-19 1 0 1 8 0 17 -1 12 17 25 59 43 58 24 67 25 315 28 140 1 273 3 295 3 65
3 188 -13 215 -26 14 -7 40 -40 59 -73 42 -74 72 -90 189 -98 48 -3 116 -11
152 -19 141 -30 174 -35 238 -35 66 1 67 1 39 16 -34 18 -67 50 -67 64 0 6 -5
10 -10 10 -6 0 -22 22 -37 49 -19 34 -38 53 -65 65 -53 23 -58 21 -59 -21 -2
-47 -2 -44 7 -66 6 -16 3 -17 -21 -11 -41 10 -71 40 -94 95 -12 26 -25 50 -30
54 -5 3 -13 20 -16 38 -4 17 -16 40 -26 50 -11 10 -19 24 -19 32 0 9 -6 12
-17 8 -14 -5 -15 -1 -9 28 11 54 26 182 22 186 -2 2 -11 -3 -19 -12 -22 -21
-27 -19 -27 13 l0 27 -34 -40 c-19 -22 -37 -37 -40 -34 -3 3 -1 22 5 43 14 52
4 57 -32 12 -29 -34 -33 -36 -48 -22 -15 14 -19 14 -33 -1 -25 -24 -46 -10
-46 31 0 37 -8 56 -22 56 -5 0 -10 -8 -12 -17 -2 -10 -9 11 -16 47 -8 42 -8
66 -2 68 6 2 10 11 10 20 0 9 11 27 25 40 13 13 21 30 18 37 -7 20 26 32 37
14 5 -7 13 -10 17 -5 4 5 2 11 -4 13 -21 7 -15 21 10 25 14 2 21 9 19 19 -1
10 9 21 28 29 17 7 40 26 51 42 26 36 63 52 89 38 21 -11 50 -4 50 13 0 6 21
33 47 59 26 26 44 50 41 54 -6 6 -55 -21 -73 -41 -15 -16 -78 -44 -87 -39 -12
8 1 24 19 24 52 0 127 108 136 194 2 25 15 53 34 75 33 41 98 151 88 151 -20
0 -79 -60 -97 -97 -23 -49 -71 -91 -109 -95 -20 -3 -25 2 -27 25 -2 15 -5 27
-8 27 -18 0 -58 -40 -76 -73 -15 -30 -22 -37 -29 -26 -5 9 -2 21 10 34 10 11
22 31 25 45 6 22 4 21 -14 -7 -26 -39 -33 -42 -20 -8 16 43 48 99 90 155 34
48 85 124 178 267 13 19 21 37 19 39 -2 3 -44 -26 -93 -64 -119 -92 -130 -98
-144 -72 -15 28 6 64 81 145 40 42 85 78 128 100 47 25 79 51 105 85 21 28 42
47 47 44 5 -3 9 0 9 5 0 22 1 27 16 49 8 12 11 22 7 23 -31 4 -68 -6 -85 -23
-11 -11 -26 -17 -35 -14 -8 3 -21 6 -30 6 -9 0 -13 6 -10 14 4 9 0 13 -11 12
-9 -2 -18 -9 -20 -17 -3 -8 -11 -18 -19 -22 -14 -8 -89 -105 -110 -142 -6 -11
-15 -18 -20 -16 -4 2 -26 -32 -49 -75 -81 -156 -90 -169 -123 -185 -20 -11
-27 -19 -19 -22 9 -4 6 -8 -8 -12 -12 -4 -31 -20 -43 -36 -31 -41 -42 -36 -37
15 4 36 2 44 -10 39 -8 -3 -14 -18 -14 -34 0 -24 -35 -135 -47 -149 -2 -2 -8
2 -13 10 -8 12 -14 10 -37 -11 -45 -41 -63 -44 -63 -9 0 17 -4 30 -9 30 -5 0
-12 10 -15 23 l-7 22 -11 -23 c-24 -49 -29 -17 -28 165 2 221 2 213 -11 190
-6 -9 -14 -15 -18 -13 -10 6 -21 -150 -21 -285 0 -76 -3 -99 -16 -110 -10 -9
-14 -23 -10 -43 7 -44 -22 -101 -53 -101 -21 0 -27 -9 -47 -70 -13 -38 -28
-77 -33 -86 -5 -9 -13 -33 -16 -53 -4 -20 -11 -36 -16 -36 -4 0 -13 -19 -19
-42 -12 -45 -62 -200 -67 -207 -1 -2 -14 4 -27 13 -14 9 -27 16 -30 16 -9 0
-12 -35 -5 -56 5 -14 2 -29 -7 -43 -13 -19 -18 -20 -34 -8 -28 19 -80 10 -80
-14 0 -25 -17 -24 -25 2 -10 32 -30 16 -27 -22 2 -19 0 -44 -3 -56 -5 -20 -11
-22 -45 -19 -22 2 -50 12 -61 22 -16 14 -24 16 -38 7 -14 -9 -28 -2 -82 41
-35 29 -64 56 -64 61 -1 22 -32 57 -63 72 -18 9 -35 14 -37 11 -4 -4 87 -140
122 -183 10 -12 24 -31 31 -43 21 -37 -5 -25 -74 33 -36 30 -69 55 -75 55 -12
0 -12 -17 1 -25 6 -3 10 -12 9 -18 0 -9 -2 -9 -6 1 -8 21 -23 13 -40 -22 -12
-27 -13 -40 -5 -65 12 -35 1 -49 -21 -26 -9 8 -20 15 -25 15 -6 0 -13 6 -16
13 -3 6 -3 2 0 -10 8 -35 -23 -29 -44 7 -9 16 -20 30 -24 30 -3 0 -9 -18 -13
-39 -8 -49 -28 -69 -50 -51 -12 10 -22 10 -38 3 -36 -17 -67 -14 -67 6 0 10
-11 28 -24 40 l-24 22 -11 -33 -12 -32 -18 30 c-22 36 -111 104 -136 104 -22
0 -145 58 -145 69 0 4 -11 14 -25 21 -16 9 -25 22 -25 38 0 15 -7 26 -20 29
-11 3 -20 11 -20 18 0 12 -21 25 -41 25 -5 0 -9 -7 -9 -16 0 -23 -19 -13 -38
21 -9 17 -18 32 -20 35 -2 2 -7 -2 -13 -10 -8 -12 -14 -10 -34 15 -14 17 -25
33 -25 37 0 3 -13 9 -29 13 -32 7 -101 64 -101 83 0 7 -4 12 -9 12 -5 0 -12
16 -15 35 -7 33 -9 35 -46 35 -21 0 -41 6 -43 13 -13 30 -25 -20 -26 -103 0
-49 -1 -92 -2 -97 -3 -10 10 -160 17 -193 5 -25 5 -25 -19 4 -16 20 -29 27
-41 23 -11 -5 -20 1 -27 17 -6 13 -28 32 -49 44 l-38 20 -11 -26 c-15 -31 -28
-20 -52 41 l-17 42 -11 -28 c-6 -16 -11 -36 -11 -45 0 -11 -8 -6 -21 16 -12
17 -25 32 -30 32 -5 0 -9 7 -9 16 0 9 -6 14 -12 11 -18 -5 -37 23 -38 54 0 37
-12 43 -31 17 -22 -29 -26 -24 -39 42 -11 58 -26 76 -48 58 -21 -18 -31 8 -30
82 1 102 3 99 -54 75 -11 -4 -23 1 -35 14 -9 12 -23 21 -30 21 -8 0 -13 12
-13 30 0 17 5 30 10 30 6 0 10 7 10 15 0 19 -9 19 -32 -2 -23 -21 -32 -12 -30
32 1 19 -3 35 -8 35 -6 0 -10 -4 -10 -10 0 -5 -7 -10 -15 -10 -8 0 -19 -9 -25
-20 -29 -54 -43 25 -15 84 12 25 13 39 6 59 -13 33 -17 33 -64 1 -37 -25 -39
-25 -44 -6 -3 13 -11 18 -19 15 -22 -8 -17 32 15 124 19 55 25 83 17 86 -6 2
4 16 22 31 17 15 32 34 32 42 0 18 -29 18 -36 1 -6 -15 -76 -21 -118 -9 l-28
8 27 32 27 32 -31 0 c-19 0 -34 7 -40 18 -13 24 83 168 119 177 13 4 30 15 38
26 18 26 73 25 97 -1 17 -18 16 -20 -14 -57 -32 -39 -40 -63 -19 -63 6 0 19 7
28 15 9 8 30 18 48 21 28 6 32 3 38 -20 3 -15 4 -42 1 -61 -5 -31 -3 -34 21
-37 19 -2 28 -10 30 -26 2 -14 10 -22 22 -22 10 0 28 -14 40 -30 16 -23 25
-28 34 -21 17 14 26 4 26 -31 0 -30 8 -35 29 -15 11 10 13 9 8 -4 -3 -11 5
-26 24 -43 16 -14 29 -31 29 -36 0 -6 7 -10 15 -10 18 0 20 -47 4 -104 -7 -24
-7 -42 -1 -48 6 -6 12 2 15 21 6 30 47 101 58 101 3 0 6 -21 8 -47 1 -34 9
-53 27 -72 20 -20 24 -33 22 -65 -3 -36 -1 -41 17 -38 11 2 31 13 43 25 l24
22 -4 -60 c-3 -54 -1 -61 20 -70 14 -6 22 -18 22 -33 0 -21 20 -52 34 -52 3 0
6 8 6 19 0 32 29 91 43 86 6 -3 22 -23 35 -45 22 -39 22 -40 2 -40 -24 0 -25
-9 -6 -35 12 -16 16 -17 30 -6 9 7 16 19 16 26 0 8 6 16 13 18 9 4 8 8 -3 16
-13 9 -12 12 5 25 26 20 65 20 65 2 0 -8 -11 -23 -25 -34 -27 -21 -23 -32 11
-32 13 0 34 14 49 33 40 47 49 50 80 21 15 -14 33 -23 40 -20 8 3 21 -7 30
-21 14 -21 22 -24 50 -19 31 6 34 4 40 -25 l7 -31 26 25 c15 14 33 27 41 29
15 3 16 -1 19 -109 2 -59 3 -62 29 -65 23 -3 29 -11 46 -60 14 -43 24 -58 37
-58 10 0 22 9 25 20 8 25 16 25 44 -1 17 -16 22 -29 17 -50 -5 -24 -2 -29 15
-29 13 0 20 6 18 17 -3 33 1 43 16 43 7 0 18 -6 22 -13 4 -7 25 -21 46 -32 20
-11 37 -24 37 -28 0 -5 11 -6 24 -3 16 4 30 0 41 -10 15 -15 17 -15 36 2 19
17 20 17 52 -14 37 -36 62 -40 89 -16 24 22 79 8 93 -24 5 -12 13 -22 18 -22
4 0 3 9 -3 19 -26 50 -1 119 40 108 19 -5 21 -2 17 19 -5 29 8 41 28 24 30
-25 79 16 54 46 -8 10 -6 22 11 48 11 19 20 41 18 48 -2 7 -1 14 2 16 9 6 56
-16 69 -32 15 -17 41 -22 41 -7 0 5 -6 16 -13 23 -6 7 -23 30 -37 51 -26 39
-55 53 -88 43 -26 -9 -72 40 -166 179 -74 109 -79 120 -79 168 0 47 0 48 -4 9
l-4 -42 -65 55 c-36 30 -69 55 -74 55 -6 0 -32 14 -60 31 -27 17 -54 28 -59
25 -5 -3 -14 1 -21 9 -7 8 -19 15 -27 15 -11 0 -14 20 -13 103 2 134 2 127
-16 120 -14 -5 -15 -1 -10 25 4 16 3 33 -2 36 -15 9 -39 -53 -47 -120 -7 -67
-25 -110 -24 -59 0 17 3 61 8 99 4 38 4 85 1 105 l-7 36 -18 -37 c-19 -39 -41
-53 -30 -20 10 32 12 96 5 122 -8 28 -5 34 -49 -85 l-30 -80 0 63 c-1 34 -5
62 -11 62 -5 0 -10 -5 -10 -10 0 -6 -8 -23 -17 -37 l-18 -27 -10 84 c-5 46
-15 85 -20 87 -6 2 -19 -22 -30 -52 -10 -31 -22 -58 -25 -60 -11 -7 1 98 15
130 53 124 65 156 75 205 10 50 18 63 93 138 45 45 85 82 90 82 5 0 1 -7 -8
-17 -26 -25 -91 -116 -98 -135 -10 -28 10 -21 35 12 27 37 42 39 34 5 -4 -14
-2 -25 4 -25 5 0 10 5 10 10 0 6 5 10 11 10 5 0 -1 -15 -14 -32 -23 -31 -47
-88 -47 -111 0 -5 19 15 43 44 39 50 84 94 112 111 6 4 2 -14 -11 -40 -23 -49
-44 -155 -27 -137 5 6 17 31 27 56 9 26 25 54 35 63 17 16 18 14 10 -31 -4
-27 -8 -57 -8 -68 0 -19 0 -19 14 -1 7 10 20 16 27 14 14 -5 58 47 58 68 0 6
7 17 16 25 13 11 14 9 8 -17 -4 -16 -11 -38 -17 -49 -10 -19 -9 -19 18 -1 l28
18 -7 -34 c-6 -31 -4 -34 19 -33 14 1 28 5 32 8 3 4 15 7 25 7 10 0 21 7 24
15 9 22 21 18 28 -10 9 -35 32 -31 40 7 6 30 7 31 26 13 11 -10 20 -24 20 -30
0 -7 7 -18 15 -25 10 -8 15 -9 15 -1 0 11 -35 105 -65 176 -16 37 -18 38 -29
19 -22 -40 -66 -85 -76 -79 -7 4 -9 25 -6 51 2 24 0 44 -5 44 -5 0 -9 -8 -9
-19 0 -10 -7 -24 -15 -31 -8 -7 -15 -10 -15 -7 0 6 27 74 41 102 10 22 39 129
35 132 -1 1 -37 -22 -79 -52 -43 -30 -80 -55 -84 -55 -3 0 -3 40 0 89 4 48 4
91 1 94 -10 9 -76 -35 -123 -83 -36 -36 -41 -39 -27 -15 19 30 61 83 110 139
43 48 32 61 -21 24 -63 -43 -215 -120 -222 -112 -3 3 13 23 37 44 47 42 51 51
22 43 -24 -6 -26 9 -4 28 14 12 59 89 51 89 -2 0 -18 -21 -36 -46 -18 -25 -35
-43 -38 -41 -9 9 25 63 66 105 43 44 42 56 -2 22 -14 -11 -32 -20 -41 -20 -9
0 -24 -4 -34 -9 -45 -24 -153 -62 -163 -59 -6 2 12 27 42 56 l53 52 -55 -19
c-30 -11 -79 -22 -109 -26 -30 -3 -73 -15 -96 -26 -42 -20 -124 -26 -124 -10
0 10 32 23 61 26 18 2 92 56 85 62 -2 3 -30 -1 -60 -8 -31 -7 -59 -9 -64 -5
-4 4 6 19 23 33 l30 26 -35 -6 c-82 -15 -120 -19 -120 -13 0 3 26 19 59 35 32
17 61 37 64 46 4 8 5 15 4 15 -1 0 -34 -7 -72 -15 -67 -14 -130 -12 -140 5 -3
4 3 11 13 16 12 6 5 9 -28 14 -51 7 -54 5 90 57 l65 23 -112 -4 c-61 -3 -121
-10 -133 -16 -11 -6 -28 -10 -36 -8 -19 4 21 62 55 78 19 9 21 13 11 25 -10
12 -10 19 4 33 35 39 22 45 -76 39 -102 -6 -101 0 6 33 74 23 102 47 42 36
-68 -13 -146 -16 -146 -6 0 6 8 10 19 10 10 0 24 6 30 14 7 8 27 17 46 20 61
12 38 26 -40 26 -82 0 -98 13 -35 30 57 15 41 34 -24 27 -28 -2 -60 -8 -71
-12 -15 -6 -17 -5 -10 3 6 7 37 22 69 35 36 15 54 27 47 32 -14 8 -145 -3
-179 -16 -20 -8 -21 -6 -13 9 10 19 54 40 129 63 23 6 42 16 42 20 0 4 -26 9
-57 11 -57 3 -57 3 -30 17 46 24 35 42 -24 39 -63 -4 -73 12 -24 35 34 16 40
37 11 37 -8 0 -19 7 -26 15 -7 9 -19 14 -26 11 -22 -9 -27 14 -8 35 17 19 17
21 2 30 -15 8 -15 49 1 49 3 0 7 16 8 35 3 30 0 35 -18 35 -15 0 -19 4 -15 16
3 9 6 19 6 24 0 10 57 40 77 40 7 0 13 5 13 10 0 6 -6 10 -14 10 -7 0 -19 6
-25 14 -10 12 -7 18 18 30 16 9 34 16 39 16 15 0 21 -35 10 -55 -8 -14 0 -27
46 -69 57 -52 66 -70 44 -80 -7 -3 8 -3 35 0 39 4 47 3 47 -11 0 -9 -9 -19
-20 -22 -11 -3 -20 -9 -20 -14 0 -13 61 -79 73 -79 6 0 21 -10 34 -22 l24 -23
34 40 c34 40 47 35 23 -7 -18 -31 -35 -48 -47 -48 -27 0 0 -31 66 -77 30 -20
32 -20 47 -4 9 10 16 22 16 27 0 10 47 64 56 64 2 0 2 -11 -2 -24 -5 -21 -1
-25 25 -31 17 -4 31 -11 31 -17 0 -6 7 -8 15 -5 13 5 33 -9 24 -17 -2 -2 -33
0 -69 4 -54 7 -66 6 -77 -8 -17 -24 -17 -26 15 -39 15 -6 51 -21 80 -33 28
-13 52 -27 52 -32 0 -5 9 -4 19 2 27 14 31 13 24 -7 -4 -10 -2 -14 4 -10 6 4
18 -5 28 -19 18 -28 52 -64 60 -64 16 0 85 -36 85 -45 0 -5 5 -3 11 5 9 12 10
12 5 -3 -3 -10 -6 -24 -6 -30 0 -9 -2 -9 -8 0 -5 8 -13 9 -22 3 -13 -8 -12
-10 3 -10 9 0 17 -5 17 -11 0 -6 7 -4 15 5 8 8 15 17 15 19 0 3 16 31 35 63
30 50 48 100 29 81 -4 -3 -23 1 -43 9 -48 20 -171 55 -193 55 -10 0 -18 6 -18
12 0 7 -10 18 -22 26 -19 12 -19 14 -5 22 8 5 34 11 56 13 38 4 40 3 30 -16
-8 -15 -7 -19 3 -16 22 4 95 -30 102 -48 5 -13 16 -16 56 -12 29 3 51 1 53 -5
2 -6 16 6 33 27 211 275 327 389 532 524 71 46 82 57 76 76 -4 11 -10 26 -15
32 -12 15 9 82 29 93 14 9 11 10 -14 11 -35 0 -63 -8 -186 -56 -49 -19 -96
-34 -105 -34 -19 1 37 25 152 66 102 36 145 56 145 66 0 4 -8 8 -17 9 -14 0
-15 2 -3 6 8 4 21 14 28 24 7 10 28 21 47 25 41 7 37 24 -6 24 -29 0 -29 0
-14 24 9 14 18 41 21 62 2 20 7 41 10 45 7 12 49 1 107 -27 52 -26 67 -29 67
-15 0 4 -37 25 -82 46 -76 35 -81 39 -60 48 16 7 22 17 19 29 -5 17 9 24 37
19 4 -1 14 6 21 16 12 16 19 13 90 -35 69 -47 95 -60 95 -48 0 2 -41 34 -90
70 -87 63 -102 86 -59 86 10 0 24 9 31 19 15 24 66 18 86 -11 27 -38 33 -16 7
28 -15 25 -24 48 -22 51 3 2 19 -5 36 -18 17 -12 33 -20 35 -18 5 5 -50 167
-94 278 -11 29 -19 55 -17 58 4 4 67 -123 67 -136 0 -4 9 -26 20 -49 11 -22
26 -65 34 -94 17 -66 52 -154 71 -182 20 -28 19 -21 -10 49 -13 33 -25 70 -25
81 0 33 -57 210 -85 266 -14 28 -24 56 -22 61 2 6 16 -14 31 -43 39 -74 75
-130 84 -130 9 0 32 -49 32 -67 0 -7 5 -13 10 -13 6 0 10 51 10 134 0 142 13
189 23 83 11 -119 36 -135 38 -24 3 107 -1 141 -17 150 -9 5 -14 25 -14 52 0
25 -4 45 -9 45 -20 0 -19 39 2 146 25 119 25 136 0 127 -13 -5 -15 -1 -10 18
12 49 19 109 13 109 -18 0 -44 -94 -51 -183 -4 -53 -11 -97 -16 -97 -19 0 -21
57 -5 151 19 118 20 162 2 104 -7 -22 -20 -53 -29 -70 -16 -29 -16 -26 -13 85
2 63 7 124 11 135 5 15 4 16 -3 5 -5 -8 -14 -40 -21 -70 -11 -44 -19 -59 -42
-73 -29 -16 -30 -16 -40 9 -8 21 -12 24 -24 14 -8 -6 -17 -20 -20 -30 -8 -26
-34 -33 -61 -15 -23 15 -24 14 -36 -26 -11 -38 -12 -39 -20 -18 -5 12 -6 29
-3 36 2 8 1 11 -4 8 -5 -3 -13 0 -16 5 -16 26 -90 70 -117 70 -17 0 -27 4 -23
10 3 6 15 10 26 10 11 0 19 7 19 16 0 8 5 12 10 9 6 -4 9 -1 8 6 -3 13 -20 24
-88 60 -48 25 -14 24 52 -1 46 -17 54 -18 67 -5 13 12 12 15 -3 21 -9 3 -23
22 -31 41 -28 66 -16 70 35 13 27 -30 50 -49 50 -41 0 8 -23 51 -50 95 l-51
81 63 -69 c59 -64 65 -68 85 -55 18 11 24 10 39 -2 15 -12 16 -12 11 6 -13 49
-17 95 -8 95 6 0 22 -16 37 -35 14 -19 30 -35 35 -35 15 0 10 40 -6 56 -8 9
-15 21 -15 27 0 7 7 4 14 -5 14 -19 36 -24 36 -8 0 5 7 7 15 4 18 -7 20 37 4
105 -14 62 -6 78 26 57 l25 -17 -6 41 c-8 48 8 54 30 12 8 -16 22 -34 30 -41
13 -11 16 -11 16 3 0 15 -73 123 -94 137 -5 4 -9 16 -10 28 0 12 -5 21 -11 21
-11 0 -12 -4 -14 -46 -2 -40 -36 -28 -37 14 -2 62 -23 51 -51 -26 -7 -18 -10
-46 -6 -63 4 -21 2 -29 -9 -29 -15 0 -38 39 -38 65 0 8 -6 12 -13 9 -11 -4
-13 7 -9 49 2 30 0 57 -5 60 -6 4 -13 -23 -17 -64 -3 -39 -13 -81 -22 -93 -15
-20 -15 -19 -12 26 3 42 1 45 -13 32 -24 -22 -29 -17 -30 29 0 37 -2 40 -11
20 -12 -25 -23 -29 -34 -12 -4 8 -9 7 -15 -2 -6 -11 -11 -11 -21 -1 -37 37
-63 -13 -50 -100 5 -32 7 -58 6 -58 -2 0 -18 28 -35 63 -36 70 -46 66 -25 -11
7 -29 9 -55 5 -58 -10 -6 -34 45 -44 90 -6 27 -7 28 -23 12 -18 -18 -24 -103
-9 -143 5 -15 4 -23 -2 -23 -6 0 -11 7 -11 15 0 9 -5 21 -10 28 -6 7 -17 21
-25 32 -13 18 -14 16 -16 -30 -1 -47 -2 -48 -12 -22 -7 18 -16 26 -25 22 -12
-4 -14 3 -9 40 6 37 3 49 -13 65 -11 11 -20 28 -20 38 -1 27 -46 176 -64 208
l-16 29 6 -30 c3 -16 17 -72 30 -123 14 -52 24 -107 22 -124 -3 -29 -4 -28
-33 28 -31 63 -48 54 -21 -11 20 -47 20 -69 1 -85 -13 -11 -14 -10 -9 4 4 10
1 16 -9 16 -9 0 -21 8 -26 18 -8 13 -10 4 -11 -37 0 -46 -2 -52 -12 -39 -7 9
-22 18 -33 20 -20 3 -48 64 -98 206 -24 70 -53 101 -134 142 -83 43 -77 39
-72 44 2 3 42 -6 88 -20 46 -13 92 -24 102 -24 19 0 19 1 0 38 -11 22 -36 60
-55 85 -41 53 -32 59 31 21 25 -14 47 -24 50 -21 2 3 -10 32 -27 64 l-32 58
39 -37 c46 -45 59 -48 39 -10 -17 33 -49 63 -70 66 -8 1 -25 14 -36 29 -20 25
-20 28 -6 43 20 20 20 22 -4 67 -16 30 -17 37 -5 37 13 0 13 5 -1 38 -75 174
-104 215 -176 252 -115 60 -200 64 -333 16z m-410 -536 c3 -5 2 -10 -4 -10 -5
0 -13 5 -16 10 -3 6 -2 10 4 10 5 0 13 -4 16 -10z m985 -529 c22 -30 40 -49
40 -43 0 19 18 14 31 -9 9 -18 8 -20 -9 -15 -17 6 -19 3 -15 -21 l5 -28 -23
25 c-36 38 -139 214 -139 237 0 4 16 -15 35 -42 20 -28 54 -74 75 -104z m-20
-77 c18 -25 30 -47 27 -50 -4 -5 -32 33 -54 74 -20 37 -6 25 27 -24z m-69 -91
c101 -87 127 -120 86 -108 -22 7 -207 183 -207 198 0 13 17 0 121 -90z m785
-608 c30 -46 -4 -135 -41 -105 -34 28 -27 130 10 130 8 0 22 -11 31 -25z
m-582 -209 c15 -13 26 -26 26 -28 0 -13 -109 -51 -146 -52 -30 -1 -40 -5 -36
-14 4 -11 1 -12 -14 -3 -10 5 -37 18 -59 28 l-40 18 63 10 c35 5 66 15 70 22
9 14 70 42 94 43 9 0 28 -11 42 -24z m934 -86 l0 -25 -8 25 c-4 14 -8 43 -8
65 l0 40 9 -40 c4 -22 8 -51 7 -65z m-318 -71 c0 -5 -4 -9 -8 -9 -5 0 -9 7 -9
15 0 8 4 12 9 9 4 -3 8 -9 8 -15z m-76 -49 c14 -5 26 -15 26 -22 0 -9 -3 -9
-11 2 -9 12 -9 11 -3 -5 4 -11 7 -31 6 -45 -1 -14 -2 -35 -2 -48 0 -15 -9 -26
-26 -32 -25 -10 -26 -11 -10 -35 13 -20 14 -25 3 -25 -21 0 -253 116 -263 131
-5 9 -2 10 12 5 46 -19 53 -18 65 8 9 18 20 26 38 26 14 0 40 11 56 25 32 26
68 31 109 15z m413 -62 c-3 -8 -6 -5 -6 6 -1 11 2 17 5 13 3 -3 4 -12 1 -19z
m-1007 -12 c0 -9 -39 -13 -51 -5 -10 6 -4 9 19 9 17 0 32 -2 32 -4z m354 -56
c53 -23 116 -56 142 -73 l46 -30 -28 -21 c-15 -12 -42 -23 -58 -26 -29 -6 -28
-7 32 -29 34 -13 61 -26 58 -28 -2 -2 -41 5 -86 17 -94 24 -121 22 -70 -5 25
-13 30 -20 19 -23 -10 -1 -19 -12 -22 -23 -3 -10 -20 -26 -39 -33 l-33 -14 30
-8 30 -9 -40 -6 -40 -6 33 -12 c17 -7 32 -16 32 -20 0 -11 -57 -41 -78 -41
-29 0 -37 -18 -10 -23 24 -4 24 -4 -29 -23 -15 -6 -14 -8 7 -14 15 -5 -22 -8
-93 -9 -81 -1 -139 -7 -190 -20 -80 -22 -268 -39 -252 -24 12 12 176 53 210
53 25 0 46 19 23 21 -30 2 71 28 115 28 26 1 47 6 47 11 0 6 -6 10 -12 9 -45
-6 -127 3 -144 16 -18 13 -17 14 14 21 17 3 32 10 32 15 0 5 9 9 19 9 11 0 23
5 26 10 4 6 -51 10 -157 11 -113 1 -152 4 -128 10 19 4 43 6 52 3 21 -6 111 6
103 14 -3 3 -24 5 -47 4 -43 -2 -173 32 -183 48 -9 14 18 17 75 10 63 -9 71
-6 44 15 -18 15 -18 16 10 39 17 14 33 23 38 20 4 -3 8 0 8 6 0 6 -11 16 -25
22 -23 10 -35 30 -17 27 4 -1 15 -1 26 0 16 1 17 3 5 18 -13 15 -12 15 6 5 11
-5 54 -13 95 -16 41 -3 66 -3 55 0 -11 3 -29 9 -40 14 -34 15 -125 31 -270 46
-76 8 -141 17 -144 19 -8 9 115 5 165 -4 74 -14 263 -23 239 -12 -17 8 -15 10
15 11 19 0 62 7 95 15 32 8 61 13 63 11 2 -2 19 4 39 14 43 21 53 19 187 -40z
m477 27 c17 -23 34 -67 26 -67 -6 0 -57 74 -57 83 0 14 15 6 31 -16z m-994
-13 c-3 -3 -12 -4 -19 -1 -8 3 -5 6 6 6 11 1 17 -2 13 -5z m53 -8 c-7 -7 -13
-7 -20 0 -6 6 -3 10 10 10 13 0 16 -4 10 -10z m-103 -82 c-3 -3 -12 -4 -19 -1
-8 3 -5 6 6 6 11 1 17 -2 13 -5z m-94 -231 c-7 -2 -21 -2 -30 0 -10 3 -4 5 12
5 17 0 24 -2 18 -5z m-90 -10 c-7 -2 -19 -2 -25 0 -7 3 -2 5 12 5 14 0 19 -2
13 -5z m-65 -10 c-10 -2 -26 -2 -35 0 -10 3 -2 5 17 5 19 0 27 -2 18 -5z m-83
-13 c-16 -4 -43 -8 -60 -8 -29 1 -29 1 5 8 19 4 46 7 60 8 22 0 22 -1 -5 -8z
m-98 -16 c-3 -3 -12 -4 -19 -1 -8 3 -5 6 6 6 11 1 17 -2 13 -5z m-44 -11 c-7
-2 -19 -2 -25 0 -7 3 -2 5 12 5 14 0 19 -2 13 -5z m-46 -9 c-3 -3 -12 -4 -19
-1 -8 3 -5 6 6 6 11 1 17 -2 13 -5z m-277 -153 c0 -5 -8 -12 -19 -16 -10 -3
-26 -14 -36 -25 -10 -11 -23 -20 -29 -20 -13 1 62 70 75 70 5 0 9 -4 9 -9z
m1153 -18 c-7 -2 -19 -2 -25 0 -7 3 -2 5 12 5 14 0 19 -2 13 -5z m-53 -13 c-8
-5 -24 -9 -35 -9 l-20 0 20 9 c11 5 27 9 35 9 13 1 13 0 0 -9z m130 -16 c-49
-16 -104 -29 -194 -44 -101 -18 -72 -4 51 25 65 15 123 28 128 30 6 2 21 3 35
3 18 0 12 -4 -20 -14z m-193 0 c-3 -3 -12 -4 -19 -1 -8 3 -5 6 6 6 11 1 17 -2
13 -5z m-1027 -39 c0 -14 5 -25 10 -25 6 0 10 -9 10 -21 0 -11 -4 -18 -9 -15
-4 3 -6 -6 -3 -20 3 -16 -1 -29 -9 -35 -11 -6 -11 -11 -2 -20 10 -10 7 -17
-13 -36 -25 -23 -64 -31 -64 -13 0 6 11 15 24 21 19 9 22 16 17 42 -5 21 -14
33 -29 37 l-22 5 26 30 c14 16 23 37 21 47 -4 15 5 22 36 27 4 0 7 -10 7 -24z
m960 15 c-8 -5 -22 -9 -30 -9 -10 0 -8 3 5 9 27 12 43 12 25 0z m-1040 -20 c0
-5 -5 -10 -11 -10 -5 0 -7 5 -4 10 3 6 8 10 11 10 2 0 4 -4 4 -10z m975 0 c-3
-5 -12 -10 -18 -10 -7 0 -6 4 3 10 19 12 23 12 15 0z m-255 -110 c-19 -11 -39
-19 -45 -19 -5 0 6 8 25 19 19 11 40 19 45 19 6 0 -6 -8 -25 -19z m-65 -30
c-3 -5 -12 -10 -18 -10 -7 0 -6 4 3 10 19 12 23 12 15 0z m-56 -23 c-14 -12
-119 -68 -119 -64 0 7 102 66 114 67 5 0 7 -2 5 -3z m-641 -59 c-3 -7 -13 -15
-24 -17 -16 -3 -17 -1 -5 13 16 19 34 21 29 4z m907 -88 c-3 -5 -20 -19 -38
-30 l-32 -22 35 31 c35 32 46 38 35 21z m-878 -136 c-3 -3 -12 -4 -19 -1 -8 3
-5 6 6 6 11 1 17 -2 13 -5z m1083 -1024 c0 -5 -2 -10 -4 -10 -2 0 -12 -3 -22
-7 -16 -6 -17 -5 -4 10 17 19 30 22 30 7z m-320 -316 c0 -13 7 -15 30 -10 34
6 37 1 13 -26 -14 -16 -15 -21 -4 -27 7 -5 22 -6 33 -3 18 4 19 3 7 -17 -8
-11 -21 -21 -31 -21 -9 0 -34 -18 -55 -39 -22 -23 -51 -41 -66 -43 -17 -3 -33
-14 -40 -28 -7 -13 -18 -25 -25 -28 -12 -4 18 61 39 83 15 15 10 35 -9 35 -9
0 -23 -9 -30 -21 -7 -11 -19 -18 -27 -15 -9 3 -12 0 -9 -9 3 -7 -4 -18 -15
-24 -20 -11 -20 -10 -5 25 8 19 12 45 8 56 -4 14 -2 18 5 14 7 -5 11 1 11 14
0 14 9 24 29 31 18 6 28 16 25 23 -3 7 2 19 11 26 14 12 16 10 10 -13 -10 -36
9 -35 37 3 23 32 58 40 58 14z m646 -39 c-4 -14 -11 -25 -16 -25 -10 0 -4 43
8 65 9 15 14 -14 8 -40z m-484 -122 c-24 -35 -48 -76 -108 -183 -25 -47 -50
-87 -54 -90 -4 -3 -10 -12 -13 -20 -4 -10 -6 -8 -6 8 -1 12 3 22 7 22 4 0 8
15 8 33 0 50 47 135 110 200 59 60 87 75 56 30z m-196 -64 c-14 -17 -26 -35
-26 -39 0 -5 -10 -14 -21 -21 -21 -11 -21 -10 2 31 20 35 42 55 67 59 2 1 -8
-13 -22 -30z m134 -158 c0 -11 -5 -23 -11 -27 -6 -3 -9 -15 -6 -25 7 -28 -16
-42 -31 -19 -13 21 -7 45 16 73 20 22 32 22 32 -2z m-1303 -20 c11 -17 8 -22
-23 -40 -19 -12 -39 -21 -44 -21 -5 0 -29 -11 -54 -25 -40 -22 -76 -25 -76 -6
0 8 53 58 94 89 36 28 87 29 103 3z m1633 -341 c-12 -62 -20 -76 -20 -33 0 31
19 97 26 90 2 -2 0 -28 -6 -57z m-50 -210 c0 -5 9 -10 20 -10 24 0 70 -21 70
-32 0 -4 8 -8 18 -8 22 -1 52 -23 52 -40 0 -9 -11 -11 -40 -7 -22 3 -40 1 -40
-4 0 -12 -73 -8 -82 4 -4 7 -12 6 -22 -2 -9 -8 -16 -10 -16 -5 0 5 -7 0 -16
-11 -12 -17 -16 -18 -24 -5 -10 15 4 50 21 50 5 0 9 8 7 18 -2 12 3 16 15 14
13 -2 18 2 17 15 -1 10 -2 21 -1 26 2 11 21 9 21 -3z m2050 1 c0 -5 -18 -11
-41 -15 -45 -7 -74 3 -43 15 27 11 84 11 84 0z m-2206 -173 c-15 -23 -69 8
-59 34 6 16 9 15 36 -4 15 -12 26 -25 23 -30z m2247 -178 c16 0 9 -32 -17 -77
-32 -55 -48 -47 -41 19 7 58 14 71 34 64 8 -3 19 -6 24 -6z m-2653 -192 c-3
-7 -15 -13 -28 -13 -13 0 -25 6 -27 13 -3 8 6 12 27 12 21 0 30 -4 28 -12z
m515 -6 c10 -10 14 -22 11 -25 -4 -4 -2 -13 4 -20 9 -10 8 -18 -1 -31 -12 -16
-15 -16 -26 -3 -8 10 -9 17 -1 22 15 9 12 35 -5 35 -8 0 -15 9 -15 20 0 25 12
26 33 2z m-513 -220 c0 -10 4 -22 10 -28 5 -5 13 -32 16 -59 9 -69 -12 -48
-31 31 -17 72 -18 74 -5 74 6 0 10 -8 10 -18z m-43 -579 c25 -58 20 -94 -16
-114 l-29 -17 -12 43 c-7 24 -9 57 -5 73 5 26 13 34 45 41 3 0 10 -11 17 -26z"/>
<path d="M4288 5813 c6 -2 18 -2 25 0 6 3 1 5 -13 5 -14 0 -19 -2 -12 -5z"/>
<path d="M4118 5703 c6 -2 18 -2 25 0 6 3 1 5 -13 5 -14 0 -19 -2 -12 -5z"/>
<path d="M4013 5693 c9 -2 23 -2 30 0 6 3 -1 5 -18 5 -16 0 -22 -2 -12 -5z"/>
<path d="M7004 8464 c-89 -59 -117 -104 -129 -207 -4 -32 -16 -74 -27 -93 -22
-37 -15 -43 21 -18 22 16 23 16 13 -3 -6 -11 -18 -25 -26 -33 -23 -19 -20 -43
4 -37 29 8 25 -15 -10 -48 -26 -25 -40 -55 -25 -55 3 0 27 11 53 24 50 25 240
76 284 76 14 0 31 -6 37 -14 10 -12 8 -17 -9 -26 -36 -19 -11 -30 59 -24 74 6
93 -4 69 -34 -11 -15 -11 -16 3 -4 10 7 28 15 40 17 13 3 25 9 27 15 2 5 44
31 93 56 79 41 89 49 89 73 0 40 -45 126 -93 178 -51 55 -167 135 -222 153
-22 7 -50 16 -63 21 -13 5 -51 9 -86 9 -51 0 -70 -5 -102 -26z"/>
<path d="M6895 8452 c-16 -10 -50 -24 -75 -32 -86 -27 -173 -79 -320 -190 -72
-55 -148 -91 -217 -105 -18 -4 -37 -14 -43 -23 -9 -16 -9 -16 -10 0 0 30 -22
31 -44 3 -13 -17 -28 -25 -34 -21 -7 4 -27 0 -44 -10 -61 -32 -68 -34 -92 -34
-14 0 -28 -5 -31 -11 -4 -6 -13 -8 -21 -5 -8 3 -14 2 -14 -3 0 -13 -102 -22
-117 -10 -22 19 -148 -5 -166 -32 -9 -12 -18 -15 -27 -9 -8 5 -19 6 -25 2 -16
-10 -69 -11 -81 -1 -14 11 -54 -5 -103 -41 -31 -23 -43 -25 -128 -24 -101 0
-100 2 -46 -54 12 -13 28 -37 35 -53 7 -16 18 -29 24 -29 7 0 17 -15 23 -32
l12 -33 19 30 20 30 0 -46 c0 -43 4 -50 54 -97 62 -59 100 -74 120 -46 13 17
15 17 51 -5 43 -25 57 -21 30 9 -31 34 -10 32 42 -4 42 -29 49 -31 48 -15 -1
10 -4 22 -8 25 -16 17 -5 21 28 11 40 -12 54 -5 35 18 -17 21 -5 31 16 14 16
-13 17 -11 10 14 -7 29 -4 32 23 18 13 -7 22 -5 34 9 13 16 14 19 1 24 -9 3
-12 11 -9 17 5 8 10 8 18 0 6 -6 20 -11 31 -11 17 0 14 5 -16 33 -20 17 -57
45 -83 61 -38 24 -49 26 -56 15 -5 -8 -9 -9 -9 -4 0 12 -60 41 -76 37 -7 -1
-14 4 -18 13 -3 8 -12 15 -21 15 -8 0 -15 5 -15 10 0 6 6 10 14 10 8 0 16 7
20 15 11 31 55 19 181 -49 17 -9 36 -16 43 -16 6 0 12 -4 12 -10 0 -5 5 -10
12 -10 6 0 20 -8 31 -17 20 -18 20 -17 14 13 -9 46 1 48 40 9 38 -38 48 -43
39 -20 -3 9 0 18 7 21 9 3 12 16 9 34 -5 35 12 40 23 8 20 -60 23 -57 18 15
-3 42 -3 77 0 77 14 0 47 -45 47 -64 0 -17 2 -18 10 -6 5 8 7 33 4 55 -3 32
-1 42 16 53 12 7 20 8 20 2 0 -20 16 -9 27 18 l12 27 -6 -27 c-5 -27 11 -41
19 -17 3 10 10 -8 35 -91 8 -28 23 12 23 62 0 63 17 70 25 11 9 -65 13 -75 14
-31 1 41 19 88 34 88 5 0 7 -10 4 -22 -13 -50 -28 -169 -25 -190 2 -15 12 7
27 59 26 87 47 111 57 65 3 -15 9 -36 14 -47 5 -11 10 -27 12 -35 3 -9 10 -2
19 18 7 18 17 32 21 32 5 0 8 9 8 19 0 11 5 23 11 26 7 5 8 -13 2 -57 -17
-142 -4 -180 38 -111 22 36 40 55 46 49 2 -1 -1 -24 -6 -50 -7 -37 -6 -49 5
-53 8 -3 14 -11 14 -18 0 -30 30 -21 73 23 57 59 65 76 73 148 4 33 11 67 16
76 4 10 13 39 18 65 15 75 18 88 29 129 6 22 11 56 11 76 0 58 35 137 82 185
44 45 36 57 -17 25z m-885 -612 c0 -5 -2 -10 -4 -10 -3 0 -8 5 -11 10 -3 6 -1
10 4 10 6 0 11 -4 11 -10z"/>
<path d="M3858 8408 c41 -41 42 -42 59 -24 10 10 13 16 7 13 -7 -4 -29 7 -49
23 -55 44 -66 36 -17 -12z"/>
<path d="M3948 8379 c-23 -13 -23 -29 0 -29 11 0 18 7 18 20 0 11 0 20 -1 20
0 0 -8 -5 -17 -11z"/>
<path d="M4814 8005 c1 -33 16 -33 16 0 0 14 -4 25 -9 25 -5 0 -8 -11 -7 -25z"/>
<path d="M7483 8010 c-13 -5 -23 -13 -23 -17 0 -5 -13 -14 -30 -20 -16 -6 -30
-16 -30 -22 0 -14 37 -15 45 -1 3 5 26 18 51 29 60 27 47 55 -13 31z"/>
<path d="M4968 7997 c-5 -10 -8 -31 -8 -45 1 -24 2 -25 11 -9 6 10 9 30 7 45
-2 23 -4 24 -10 9z"/>
<path d="M5065 7989 c-4 -6 2 -13 14 -16 12 -3 21 -9 21 -14 0 -5 9 -9 20 -9
29 0 24 17 -10 35 -35 18 -37 18 -45 4z"/>
<path d="M5154 7934 c3 -9 6 -20 6 -25 0 -5 9 -9 20 -9 28 0 25 23 -6 37 -22
10 -25 10 -20 -3z"/>
<path d="M7440 7920 c0 -5 5 -10 11 -10 5 0 7 5 4 10 -3 6 -8 10 -11 10 -2 0
-4 -4 -4 -10z"/>
<path d="M6813 7811 c-54 -35 -103 -83 -103 -101 0 -7 74 10 113 25 10 4 17 3
17 -4 0 -6 -11 -13 -24 -17 -26 -6 -77 -54 -58 -54 6 0 18 7 26 16 9 8 16 11
16 5 0 -6 7 -8 15 -5 26 10 17 -11 -20 -46 -34 -33 -44 -63 -26 -75 5 -3 12
-1 16 5 3 5 11 10 17 10 6 0 4 -10 -5 -24 -26 -39 -9 -37 51 5 34 24 58 35 61
28 2 -6 -1 -14 -6 -18 -5 -3 -19 -22 -31 -42 -12 -20 -35 -53 -52 -74 -39 -49
-41 -74 -2 -46 38 28 115 103 127 124 9 15 14 16 45 5 19 -7 42 -21 52 -30 19
-19 48 -14 48 8 0 8 4 14 9 14 8 0 23 52 16 58 -2 2 -13 -2 -25 -8 -11 -6 -26
-9 -33 -7 -7 3 0 10 16 16 24 9 26 13 15 31 -7 11 -21 20 -30 20 -10 0 -18 8
-18 18 0 9 -9 28 -20 42 -11 14 -20 41 -20 62 0 50 -8 66 -41 83 -45 24 -81
18 -146 -24z"/>
<path d="M5045 7691 c-8 -13 5 -61 16 -61 12 0 12 57 0 65 -5 3 -12 1 -16 -4z"/>
<path d="M4980 7631 c0 -42 9 -61 31 -61 12 0 25 -16 40 -47 15 -32 23 -42 26
-31 6 23 -25 79 -47 85 -11 3 -21 18 -24 39 -9 43 -26 54 -26 15z"/>
<path d="M5485 7540 c3 -5 8 -10 11 -10 2 0 4 5 4 10 0 6 -5 10 -11 10 -5 0
-7 -4 -4 -10z"/>
<path d="M5670 7541 c0 -5 7 -12 16 -15 14 -5 15 -4 4 9 -14 17 -20 19 -20 6z"/>
<path d="M6734 7486 c-4 -9 -4 -20 0 -23 3 -4 12 -1 18 5 9 9 9 15 0 24 -9 9
-13 7 -18 -6z"/>
<path d="M7136 7476 c-9 -14 -16 -29 -16 -34 0 -5 -14 -6 -31 -4 -24 4 -30 1
-27 -9 6 -18 74 -19 71 -1 -4 17 14 15 21 -3 3 -8 17 -15 32 -15 22 0 24 3 15
14 -10 12 -5 13 31 9 40 -5 42 -4 27 11 -9 9 -28 18 -42 20 -15 1 -35 10 -46
20 -17 16 -19 15 -35 -8z"/>
<path d="M7285 7410 c-3 -5 -19 -10 -35 -10 -17 0 -30 -7 -34 -17 -5 -11 -10
-13 -14 -7 -8 13 -57 26 -65 18 -10 -11 27 -75 42 -73 41 4 44 -1 21 -26 -13
-14 -21 -28 -17 -31 11 -11 48 8 57 30 5 14 24 27 49 36 44 14 55 33 19 30
-51 -5 -61 -1 -47 16 7 9 21 13 33 10 26 -6 51 8 42 23 -9 14 -43 14 -51 1z"/>
<path d="M7070 7380 c0 -5 4 -10 9 -10 6 0 13 5 16 10 3 6 -1 10 -9 10 -9 0
-16 -4 -16 -10z"/>
<path d="M7397 7370 c-48 -8 -65 -16 -56 -24 7 -7 102 13 113 24 11 11 12 11
-57 0z"/>
<path d="M7445 7329 c-22 -10 -54 -19 -71 -19 -38 0 -94 -19 -94 -31 0 -9 34
-5 118 16 66 17 67 0 1 -32 -31 -16 -63 -22 -109 -23 -36 0 -72 -5 -80 -11
-11 -8 11 -9 78 -4 106 7 122 -6 30 -24 -103 -20 -133 -31 -68 -25 30 2 70 6
88 7 17 1 32 5 32 10 0 4 11 7 25 7 15 0 28 7 32 18 4 9 17 25 30 36 18 13 21
21 13 31 -8 10 -6 17 8 27 52 37 32 48 -33 17z"/>
<path d="M7379 7174 c-12 -14 -11 -16 5 -13 11 2 21 10 24 17 5 17 -13 15 -29
-4z"/>
<path d="M7405 7129 c-4 -6 -14 -8 -23 -4 -13 5 -92 -38 -92 -50 0 -6 45 3 80
16 22 8 60 49 46 49 -3 0 -8 -5 -11 -11z"/>
<path d="M7263 7043 c-41 -8 -24 -24 22 -21 25 2 44 8 42 13 -4 11 -31 15 -64
8z"/>
<path d="M6138 6935 c-32 -18 -68 -74 -68 -106 1 -23 1 -23 30 9 16 17 33 32
36 32 4 0 0 -8 -9 -18 -27 -30 -48 -103 -53 -187 -2 -44 -2 -74 2 -67 13 28
24 9 23 -38 -1 -28 1 -53 5 -57 4 -4 18 6 31 22 13 17 27 27 31 23 4 -5 2 -8
-5 -8 -6 0 -16 -12 -21 -26 -12 -31 3 -56 27 -47 13 5 13 3 4 -15 -17 -32 -14
-35 27 -28 l37 6 -27 -15 c-36 -20 -36 -35 0 -35 16 0 32 -8 39 -19 7 -11 26
-22 43 -25 16 -3 43 -9 59 -12 24 -4 29 -9 25 -29 -4 -20 0 -23 38 -27 24 -3
57 1 73 8 28 11 85 58 85 70 0 2 -23 50 -51 105 -55 112 -109 249 -109 281 0
11 -22 43 -50 71 -46 46 -66 78 -39 61 7 -4 10 -1 7 7 -3 8 -19 22 -36 32 -25
15 -38 16 -66 8 -37 -10 -51 3 -16 14 11 4 18 11 15 16 -9 14 -56 10 -87 -6z
m177 -250 c34 -33 33 -79 0 -101 -14 -9 -32 -14 -40 -10 -35 13 -70 108 -48
129 15 16 65 6 88 -18z"/>
<path d="M6894 6922 c-22 -16 -40 -38 -41 -49 -2 -28 23 -24 56 7 15 14 36 30
46 37 20 11 20 11 0 10 -11 -1 -19 3 -17 11 3 17 0 16 -44 -16z"/>
<path d="M6940 6830 c0 -5 6 -10 14 -10 8 0 18 5 21 10 3 6 -3 10 -14 10 -12
0 -21 -4 -21 -10z"/>
<path d="M6866 6813 c-7 -17 4 -16 28 2 18 13 18 14 -3 12 -11 -1 -23 -7 -25
-14z"/>
<path d="M6897 6703 c-4 -3 -7 -11 -7 -17 0 -6 5 -5 12 2 6 6 9 14 7 17 -3 3
-9 2 -12 -2z"/>
<path d="M5121 6604 c0 -11 3 -14 6 -6 3 7 2 16 -1 19 -3 4 -6 -2 -5 -13z"/>
<path d="M7348 6123 c7 -3 16 -2 19 1 4 3 -2 6 -13 5 -11 0 -14 -3 -6 -6z"/>
<path d="M7178 6113 c7 -3 16 -2 19 1 4 3 -2 6 -13 5 -11 0 -14 -3 -6 -6z"/>
<path d="M6179 6039 c-31 -22 -80 -62 -110 -89 -42 -39 -28 -31 64 36 64 47
117 88 117 90 0 10 -19 0 -71 -37z"/>
<path d="M6400 5986 c-80 -29 -263 -117 -256 -123 3 -3 22 4 43 17 20 12 94
44 163 72 69 27 127 52 129 54 9 9 -17 2 -79 -20z"/>
<path d="M6325 5910 c-38 -10 -81 -23 -95 -29 -22 -10 -21 -10 10 -5 64 11
205 53 180 52 -14 0 -56 -8 -95 -18z"/>
<path d="M6608 5833 c6 -2 18 -2 25 0 6 3 1 5 -13 5 -14 0 -19 -2 -12 -5z"/>
<path d="M6372 5819 c-84 -10 -154 -27 -112 -28 14 0 88 8 165 18 102 14 124
19 80 18 -33 0 -93 -3 -133 -8z"/>
<path d="M7048 5823 c7 -3 16 -2 19 1 4 3 -2 6 -13 5 -11 0 -14 -3 -6 -6z"/>
<path d="M7153 5813 c9 -2 25 -2 35 0 9 3 1 5 -18 5 -19 0 -27 -2 -17 -5z"/>
<path d="M7238 5803 c7 -3 16 -2 19 1 4 3 -2 6 -13 5 -11 0 -14 -3 -6 -6z"/>
<path d="M7288 5793 c6 -2 18 -2 25 0 6 3 1 5 -13 5 -14 0 -19 -2 -12 -5z"/>
<path d="M7408 5773 c7 -3 16 -2 19 1 4 3 -2 6 -13 5 -11 0 -14 -3 -6 -6z"/>
<path d="M5096 5753 c1 -3 -2 -17 -7 -31 -10 -26 7 -132 21 -132 7 0 21 -33
24 -55 2 -17 66 -105 76 -105 6 0 10 -7 10 -15 0 -8 4 -15 10 -15 5 0 24 -13
42 -28 33 -28 97 -62 117 -62 5 0 14 -8 20 -17 5 -10 13 -18 18 -18 4 0 8 -36
9 -80 0 -85 -15 -135 -42 -135 -9 0 -25 -10 -36 -22 -12 -15 -21 -19 -24 -11
-3 7 -14 3 -30 -12 -14 -13 -32 -21 -39 -19 -7 3 -16 0 -20 -6 -5 -8 -11 -5
-20 7 -13 17 -14 17 -20 -2 -4 -11 -9 -27 -12 -35 -4 -11 -8 -10 -16 8 l-10
22 -23 -21 c-19 -18 -26 -20 -38 -10 -21 18 -65 -14 -73 -51 -4 -20 -8 -25
-14 -17 -4 7 -5 26 -2 41 7 38 -21 38 -41 1 -11 -20 -15 -23 -16 -10 0 9 -4
17 -8 17 -12 0 -42 -34 -42 -48 0 -7 -4 -12 -10 -12 -5 0 -10 7 -10 15 0 30
-21 14 -41 -29 -24 -54 -36 -160 -20 -170 6 -4 14 0 17 9 6 13 8 14 15 3 7
-11 10 -11 18 0 4 7 16 14 25 16 10 1 22 9 27 17 8 12 11 11 23 -3 14 -19 57
-24 84 -9 9 5 35 11 57 12 30 3 40 0 40 -11 0 -8 14 -20 31 -25 17 -6 38 -16
47 -24 10 -8 27 -11 43 -7 23 6 25 4 19 -16 -3 -13 -3 -18 2 -12 4 6 18 16 31
23 19 10 27 9 50 -8 19 -13 33 -17 43 -10 7 5 25 9 40 9 14 0 31 6 37 12 9 9
17 10 30 1 26 -16 48 18 31 46 -16 24 -5 51 20 51 11 0 36 8 55 17 34 16 37
16 56 -2 16 -14 24 -16 47 -7 16 6 42 14 60 17 20 4 42 19 59 42 l27 36 13
-26 c11 -20 73 -67 90 -67 6 0 5 53 -2 86 -6 31 -77 89 -95 79 -5 -4 -10 -18
-10 -33 -2 -24 -2 -24 -6 -4 -5 23 -37 47 -53 37 -5 -3 -12 -1 -15 5 -4 6 -15
8 -25 5 -13 -4 -22 1 -30 16 -9 15 -15 18 -23 10 -18 -18 -37 -13 -37 9 0 24
-8 25 -32 3 -17 -15 -18 -15 -18 5 0 24 -15 37 -25 22 -12 -20 -23 -10 -33 33
-17 61 -18 86 -7 89 6 2 11 -7 13 -19 2 -15 10 -23 23 -23 24 0 24 8 -1 40
-11 14 -20 31 -20 38 0 6 -6 12 -13 12 -7 0 -20 13 -30 29 -19 32 -21 42 -9
40 22 -4 33 3 30 19 -2 11 4 18 17 20 11 2 25 13 30 25 6 12 18 21 28 21 9 -1
17 4 17 10 0 7 11 27 25 46 19 26 22 37 13 47 -8 11 -7 18 8 32 43 42 65 74
69 104 3 18 2 25 -1 17 -12 -25 -47 -48 -92 -60 -37 -9 -112 -66 -112 -85 0
-3 18 -14 40 -23 l39 -17 -15 -32 c-18 -36 -30 -43 -65 -36 -27 5 -49 47 -49
94 -1 13 -7 38 -14 54 -12 29 -13 29 -24 9 -13 -25 -20 -64 -21 -121 -1 -53
-21 -57 -70 -12 l-34 30 22 20 c38 35 25 79 -42 142 -29 26 -43 34 -48 25 -4
-7 -12 -9 -16 -4 -4 5 -1 13 8 19 15 9 12 14 -23 40 -22 16 -43 37 -45 48 -3
10 -14 21 -24 24 -10 4 -19 11 -19 16 0 5 -8 9 -18 9 -10 0 -23 4 -28 9 -6 5
-10 6 -8 4z m434 -604 c0 -11 -7 -19 -15 -19 -10 0 -15 10 -15 31 0 27 2 30
15 19 8 -7 15 -21 15 -31z m-20 -49 c0 -11 -4 -20 -10 -20 -5 0 -10 9 -10 20
0 11 5 20 10 20 6 0 10 -9 10 -20z"/>
<path d="M7590 5641 c0 -10 30 -24 37 -17 3 2 -5 9 -16 16 -12 6 -21 7 -21 1z"/>
<path d="M6435 5625 l60 -14 -50 4 c-176 15 -210 16 -193 5 20 -12 355 -23
342 -10 -9 8 -162 31 -198 29 -12 -1 6 -7 39 -14z"/>
<path d="M6708 5613 c7 -3 16 -2 19 1 4 3 -2 6 -13 5 -11 0 -14 -3 -6 -6z"/>
<path d="M6758 5603 c7 -3 16 -2 19 1 4 3 -2 6 -13 5 -11 0 -14 -3 -6 -6z"/>
<path d="M6630 5590 c8 -5 24 -10 34 -10 26 0 18 6 -19 14 -22 5 -26 4 -15 -4z"/>
<path d="M6808 5593 c7 -3 16 -2 19 1 4 3 -2 6 -13 5 -11 0 -14 -3 -6 -6z"/>
<path d="M6848 5583 c7 -3 16 -2 19 1 4 3 -2 6 -13 5 -11 0 -14 -3 -6 -6z"/>
<path d="M6397 5560 c51 -23 255 -82 261 -76 2 3 -13 9 -34 15 -22 6 -87 26
-146 46 -118 38 -145 44 -81 15z"/>
<path d="M4836 5546 c8 -21 34 -28 50 -15 20 16 8 29 -26 29 -21 0 -28 -4 -24
-14z"/>
<path d="M7030 5530 c8 -5 20 -10 25 -10 6 0 3 5 -5 10 -8 5 -19 10 -25 10 -5
0 -3 -5 5 -10z"/>
<path d="M7080 5517 c0 -3 35 -19 78 -35 120 -47 118 -46 107 -35 -5 6 -41 22
-80 36 -38 14 -78 28 -87 32 -10 4 -18 5 -18 2z"/>
<path d="M7280 5436 c0 -2 7 -7 16 -10 8 -3 12 -2 9 4 -6 10 -25 14 -25 6z"/>
<path d="M6395 5382 c11 -11 119 -66 215 -111 88 -41 185 -116 344 -265 43
-41 50 -44 64 -30 13 13 13 15 0 12 -8 -2 -44 25 -79 59 -35 33 -86 78 -114
100 -60 46 -190 133 -200 133 -4 0 -43 18 -88 41 -100 49 -155 73 -142 61z"/>
<path d="M7415 5373 c6 -6 28 -20 50 -32 22 -13 31 -15 20 -6 -22 18 -86 53
-70 38z"/>
<path d="M4991 5341 c-11 -7 -9 -10 9 -16 15 -5 28 -2 38 9 15 15 14 16 -8 16
-14 0 -31 -4 -39 -9z"/>
<path d="M4555 5316 c-40 -17 -175 -119 -248 -185 -96 -89 -270 -301 -290
-355 -8 -19 -7 -19 13 -1 16 15 39 19 118 20 l97 2 63 79 c34 44 126 142 204
219 100 99 137 141 125 143 -10 2 -15 7 -12 12 3 5 -4 14 -16 20 -15 9 -20 19
-16 36 5 27 3 28 -38 10z"/>
<path d="M5063 5315 c-18 -8 -33 -19 -33 -24 0 -12 23 -5 65 21 35 21 14 23
-32 3z"/>
<path d="M6370 5316 c0 -2 7 -7 16 -10 8 -3 12 -2 9 4 -6 10 -25 14 -25 6z"/>
<path d="M7060 5301 c0 -9 51 -34 57 -27 2 2 -10 11 -26 19 -17 9 -31 12 -31
8z"/>
<path d="M5156 5275 c-9 -9 -16 -21 -16 -26 0 -5 9 0 21 12 11 11 19 23 16 25
-3 3 -12 -2 -21 -11z"/>
<path d="M6390 5275 c0 -4 58 -66 128 -139 79 -81 140 -154 161 -191 18 -33
43 -70 55 -83 l21 -24 6 24 c6 24 21 27 72 13 20 -5 27 -4 27 8 0 15 -76 70
-97 70 -7 0 -10 5 -6 10 3 5 -3 6 -16 2 -14 -4 -23 -1 -27 9 -3 9 -14 16 -24
16 -10 0 -24 7 -31 16 -12 15 -11 16 9 10 13 -4 22 -3 22 3 0 5 -9 12 -19 16
-11 3 -53 38 -93 76 -98 94 -188 173 -188 164z"/>
<path d="M5250 5249 c0 -5 5 -7 10 -4 6 3 10 8 10 11 0 2 -4 4 -10 4 -5 0 -10
-5 -10 -11z"/>
<path d="M7150 5250 c8 -5 20 -10 25 -10 6 0 3 5 -5 10 -8 5 -19 10 -25 10 -5
0 -3 -5 5 -10z"/>
<path d="M7230 5206 c0 -2 11 -11 25 -20 14 -9 25 -13 25 -8 0 5 -11 14 -25
20 -14 6 -25 10 -25 8z"/>
<path d="M4563 5121 c-149 -129 -329 -348 -267 -324 8 3 14 8 14 12 0 3 17 6
38 7 20 1 55 7 77 13 22 7 57 12 77 11 21 0 48 5 60 12 13 7 27 11 32 10 5 -2
6 4 3 12 -3 8 1 20 9 27 8 7 14 24 13 38 -3 33 11 84 25 93 7 5 7 8 1 8 -6 0
-10 18 -8 40 1 24 -4 45 -12 53 -11 10 -11 15 2 30 32 35 2 15 -64 -42z"/>
<path d="M5250 5150 c-6 -12 -9 -24 -7 -27 3 -2 11 5 17 17 6 12 9 24 7 27 -3
2 -11 -5 -17 -17z"/>
<path d="M5188 5154 c-5 -4 -8 -16 -8 -28 0 -14 3 -17 11 -9 6 6 9 19 7 28 -1
9 -6 13 -10 9z"/>
<path d="M6408 5099 c29 -28 51 -53 50 -55 -2 -2 -29 -5 -60 -6 -64 -3 -64 6
5 -105 24 -40 47 -70 50 -66 4 3 12 2 19 -4 14 -10 124 -10 134 0 3 3 13 3 21
0 8 -3 19 0 24 8 8 12 10 12 18 -1 6 -8 13 -12 16 -8 14 13 -61 128 -84 128
-6 0 -7 7 -4 17 4 10 2 14 -4 10 -15 -9 -44 3 -37 14 3 5 0 9 -6 9 -6 0 -26
16 -46 35 -19 19 -42 35 -52 35 -9 0 -30 9 -47 20 -53 35 -52 21 3 -31z m132
-109 c0 -5 -2 -10 -4 -10 -3 0 -8 5 -11 10 -3 6 -1 10 4 10 6 0 11 -4 11 -10z"/>
<path d="M6400 5060 c0 -5 5 -10 11 -10 5 0 7 5 4 10 -3 6 -8 10 -11 10 -2 0
-4 -4 -4 -10z"/>
<path d="M6751 5036 c7 -7 143 -55 146 -52 6 5 -40 32 -76 44 -33 12 -79 16
-70 8z"/>
<path d="M6771 4982 c68 -52 174 -95 155 -63 -11 17 -134 81 -156 81 l-23 0
24 -18z"/>
<path d="M6950 4971 c0 -5 5 -13 10 -16 6 -3 10 -2 10 4 0 5 -4 13 -10 16 -5
3 -10 2 -10 -4z"/>
<path d="M4695 4959 c-4 -6 -5 -12 -2 -15 2 -3 7 2 10 11 7 17 1 20 -8 4z"/>
<path d="M4783 4894 c-41 -87 -56 -174 -29 -174 9 0 16 -8 16 -20 0 -11 4 -20
9 -20 10 0 23 100 25 180 1 25 4 47 7 50 8 7 21 60 14 60 -3 0 -22 -34 -42
-76z"/>
<path d="M4657 4898 c-15 -26 -15 -29 -2 -18 20 16 39 50 28 50 -4 0 -16 -14
-26 -32z"/>
<path d="M6366 4907 c3 -10 9 -15 12 -12 3 3 0 11 -7 18 -10 9 -11 8 -5 -6z"/>
<path d="M5985 4878 c12 -56 37 -109 49 -105 16 6 8 63 -16 103 -26 43 -42 44
-33 2z"/>
<path d="M6391 4870 c0 -8 6 -24 14 -34 19 -25 19 -9 0 24 -8 14 -14 19 -14
10z"/>
<path d="M6618 4843 c-39 -4 -51 -19 -20 -25 30 -6 83 4 79 15 -4 13 -12 14
-59 10z"/>
<path d="M6512 4828 c5 -15 28 -23 28 -10 0 5 -7 13 -16 16 -10 4 -14 1 -12
-6z"/>
<path d="M6395 4790 c3 -5 8 -10 11 -10 2 0 4 5 4 10 0 6 -5 10 -11 10 -5 0
-7 -4 -4 -10z"/>
<path d="M3942 4665 c-11 -18 -23 -43 -27 -56 -4 -13 -12 -30 -17 -36 -17 -21
-1 -43 30 -43 28 0 126 -31 139 -43 3 -4 -1 -7 -11 -7 -19 0 -46 -23 -46 -38
0 -5 11 -9 25 -9 20 0 31 12 65 79 37 73 50 116 32 104 -4 -2 -18 2 -31 9 -14
7 -43 11 -65 9 -31 -3 -36 -2 -21 5 11 5 15 10 9 10 -6 1 -23 12 -37 25 l-26
24 -19 -33z"/>
<path d="M4141 4544 c-20 -38 -21 -48 -10 -56 12 -8 11 -9 -1 -5 -9 2 -20 -8
-28 -26 -11 -26 -10 -33 3 -46 15 -15 16 -13 10 14 -4 20 -3 25 3 17 5 -7 15
-12 22 -10 8 2 15 -6 17 -17 3 -17 2 -18 -7 -5 -10 13 -11 13 -7 0 2 -9 20
-17 45 -21 55 -7 59 -14 20 -29 -90 -33 -88 -30 -43 -51 22 -9 49 -18 61 -18
11 -1 24 -4 28 -8 4 -5 62 -7 129 -5 108 2 119 1 98 -11 -17 -10 -20 -16 -10
-19 8 -3 -11 -13 -41 -23 -70 -23 -75 -26 -59 -36 25 -16 64 -9 119 21 58 31
106 38 113 18 5 -17 122 -17 139 0 7 7 19 12 27 12 11 0 10 -4 -4 -20 -10 -11
-16 -22 -13 -25 8 -8 101 -8 130 0 20 5 27 3 30 -10 3 -16 5 -16 28 3 23 19
26 19 59 3 26 -12 35 -13 38 -3 7 19 40 14 57 -10 l15 -22 25 30 c14 16 32 37
41 46 11 14 20 15 39 8 34 -13 96 8 96 32 0 10 5 18 10 18 6 0 10 -9 10 -20 0
-11 7 -23 15 -26 8 -4 15 -11 15 -16 0 -21 82 -193 95 -201 8 -4 15 -16 15
-25 0 -15 2 -15 10 -2 9 13 16 9 44 -23 41 -46 47 -36 40 60 -6 84 3 102 39
78 32 -21 46 -14 39 21 -4 23 -2 25 17 19 20 -6 21 -4 15 34 -7 43 3 53 26 26
17 -21 30 -19 30 5 0 18 3 19 21 10 11 -7 27 -9 36 -6 13 5 13 8 -1 22 -17 16
-21 34 -8 34 4 0 22 -4 40 -9 30 -9 32 -8 27 10 -5 16 -1 19 27 20 18 1 48 1
66 0 18 -2 32 2 32 9 0 6 16 10 38 9 53 -1 174 -21 194 -31 10 -4 19 -4 23 1
3 5 -18 18 -47 29 -29 11 -75 32 -103 46 -27 14 -56 26 -62 26 -7 0 -13 4 -13
9 0 5 -17 12 -37 16 -21 4 -49 15 -64 26 -32 23 -53 25 -45 4 7 -20 -7 -19
-51 5 -33 18 -37 18 -48 3 -11 -15 -16 -14 -59 6 -37 19 -49 21 -61 11 -11 -9
-18 -10 -29 -1 -11 9 -15 7 -19 -9 -4 -17 -10 -20 -34 -13 -15 4 -39 7 -53 6
-14 -1 -33 6 -43 15 -16 14 -18 14 -31 -3 -12 -16 -16 -17 -30 -6 -12 10 -23
11 -48 2 -29 -11 -35 -10 -47 8 -13 20 -13 20 -47 -5 l-34 -26 0 26 c0 17 -5
26 -16 26 -8 0 -13 -4 -10 -9 3 -5 -1 -11 -9 -15 -17 -6 -30 10 -15 19 20 12
10 27 -15 21 -18 -5 -25 -2 -25 9 0 13 -3 13 -20 3 -11 -7 -20 -19 -20 -26 0
-10 -20 -12 -90 -8 -50 3 -98 10 -108 15 -18 10 -58 -10 -45 -22 3 -4 1 -7 -5
-7 -6 0 -14 5 -17 10 -10 16 -45 12 -45 -5 0 -10 -10 -15 -30 -15 -18 0 -30 5
-30 13 0 10 -25 12 -105 9 -88 -4 -109 -2 -124 12 -10 9 -34 18 -52 20 -19 1
-45 7 -59 13 -33 15 -147 50 -186 58 -28 5 -32 3 -53 -41z m759 -84 c0 -5 -4
-10 -10 -10 -5 0 -10 5 -10 10 0 6 5 10 10 10 6 0 10 -4 10 -10z"/>
<path d="M4993 4543 c-18 -7 -16 -33 2 -33 8 0 15 9 15 20 0 11 -1 20 -2 19
-2 0 -9 -3 -15 -6z"/>
<path d="M6445 4470 c3 -5 13 -10 21 -10 8 0 12 5 9 10 -3 6 -13 10 -21 10 -8
0 -12 -4 -9 -10z"/>
<path d="M6050 4415 c10 -12 10 -15 -1 -16 -8 0 4 -9 26 -19 37 -17 41 -18 58
-2 15 13 20 14 26 3 8 -13 121 -44 129 -36 2 2 -26 18 -63 36 -57 28 -69 31
-87 20 -13 -8 -23 -9 -32 -2 -6 5 -25 15 -40 21 -26 9 -27 9 -16 -5z"/>
<path d="M3563 4343 c9 -2 25 -2 35 0 9 3 1 5 -18 5 -19 0 -27 -2 -17 -5z"/>
<path d="M5916 4126 c3 -8 13 -17 22 -21 13 -5 13 -2 -3 15 -21 24 -26 25 -19
6z"/>
<path d="M4510 3995 c-14 -16 -5 -54 9 -39 14 15 23 54 13 54 -5 0 -15 -7 -22
-15z"/>
<path d="M6919 3786 c22 -23 39 -32 52 -29 16 4 17 8 7 20 -14 17 -62 43 -79
43 -7 0 2 -15 20 -34z"/>
<path d="M6732 3737 c6 -18 17 -41 25 -52 13 -19 13 -19 13 2 0 16 5 20 20 16
45 -12 -1 41 -52 60 -15 5 -15 2 -6 -26z"/>
<path d="M6690 3752 c0 -12 19 -26 26 -19 2 2 -2 10 -11 17 -9 8 -15 8 -15 2z"/>
<path d="M6710 3715 c0 -15 18 -40 24 -34 3 3 -1 14 -9 25 -8 10 -14 15 -15 9z"/>
<path d="M7690 3683 c0 -5 5 -15 10 -23 8 -12 10 -11 10 8 0 12 -4 22 -10 22
-5 0 -10 -3 -10 -7z"/>
<path d="M4530 3636 c0 -13 9 -34 19 -47 l20 -24 -9 40 c-5 22 -10 43 -10 48
0 20 -20 4 -20 -17z"/>
<path d="M6580 3614 c0 -48 51 -150 70 -139 17 10 -10 100 -40 130 -27 27 -30
28 -30 9z"/>
<path d="M4685 3559 c8 -23 15 -60 15 -83 0 -37 4 -43 43 -68 46 -29 71 -37
75 -25 1 4 -8 31 -21 60 -13 28 -27 59 -30 67 -4 8 -4 -1 -1 -20 3 -19 10 -39
15 -44 12 -13 11 -26 -1 -26 -13 0 -50 74 -50 101 0 27 -31 79 -47 79 -9 0 -9
-10 2 -41z"/>
<path d="M6519 3588 c-7 -17 -5 -208 2 -197 5 8 9 31 9 51 0 28 5 40 21 49 17
9 23 8 30 -2 6 -11 9 -10 14 2 4 11 -8 31 -34 58 -23 24 -42 41 -42 39z"/>
<path d="M6671 3574 c0 -11 3 -14 6 -6 3 7 2 16 -1 19 -3 4 -6 -2 -5 -13z"/>
<path d="M4579 3553 c0 -25 -1 -26 -9 -8 -6 15 -9 16 -9 4 -1 -21 28 -80 49
-101 9 -9 22 -13 29 -9 9 6 4 25 -18 74 -17 37 -33 67 -36 67 -3 0 -5 -12 -6
-27z"/>
<path d="M7593 3553 c-24 -5 -31 -27 -12 -38 6 -4 15 -17 20 -29 8 -19 9 -18
6 7 -3 19 2 32 14 41 16 11 16 28 0 25 -3 -1 -16 -4 -28 -6z"/>
<path d="M6442 3479 c-17 -96 -16 -106 8 -78 l19 24 1 -38 c0 -21 4 -36 9 -33
13 8 4 118 -12 158 l-14 33 -11 -66z"/>
<path d="M6393 3508 c-81 -105 -104 -257 -24 -158 26 32 33 52 38 105 6 66 3
75 -14 53z"/>
<path d="M7526 3428 c-7 -33 12 -98 28 -98 5 0 17 -7 26 -15 15 -14 17 -11 17
31 0 27 5 49 13 54 21 13 -19 59 -51 60 -22 0 -28 -6 -33 -32z"/>
<path d="M4077 3273 c-12 -67 -6 -90 8 -33 7 30 10 59 6 63 -5 5 -11 -9 -14
-30z"/>
<path d="M7441 3252 c-1 -18 3 -31 8 -27 6 3 14 -3 20 -12 9 -16 10 -16 11 5
0 12 -5 22 -10 22 -6 0 -15 10 -20 23 -8 20 -9 19 -9 -11z"/>
<path d="M4367 3197 c-2 -7 -17 -19 -33 -27 -39 -20 -53 -40 -54 -73 0 -27 0
-27 25 -11 14 9 25 21 25 28 0 6 14 26 30 45 17 18 30 38 30 42 0 14 -17 11
-23 -4z"/>
<path d="M6960 3188 c0 -3 7 -19 15 -36 10 -20 21 -29 30 -25 11 4 24 -15 46
-63 30 -68 35 -117 15 -164 -4 -9 0 -24 7 -34 13 -18 15 -18 47 12 18 18 37
32 41 32 18 0 8 52 -22 110 -17 35 -49 75 -74 97 -46 38 -105 78 -105 71z"/>
<path d="M4780 3150 c27 -51 148 -143 209 -158 15 -4 -51 95 -99 148 l-31 35
6 -40 c5 -39 5 -39 -9 -15 -9 14 -15 21 -16 17 0 -5 -13 1 -29 12 -36 26 -45
26 -31 1z"/>
<path d="M4202 3098 c-17 -36 -35 -192 -21 -197 5 -1 15 -15 20 -29 15 -39 31
-8 23 46 -5 30 -3 42 6 42 9 0 11 19 8 70 -4 78 -18 104 -36 68z"/>
<path d="M7258 3045 c-7 -8 3 -54 13 -61 5 -3 9 2 9 10 0 9 4 16 9 16 5 0 12
7 15 16 4 12 2 15 -9 10 -8 -3 -15 -1 -15 4 0 11 -13 13 -22 5z"/>
<path d="M7204 2978 c1 -41 5 -53 18 -56 14 -3 16 3 11 35 -3 21 -12 46 -18
56 -11 15 -12 10 -11 -35z"/>
<path d="M5090 2868 c0 -9 5 -20 11 -23 17 -11 18 -2 3 19 -12 17 -14 17 -14
4z"/>
<path d="M7021 2851 c-14 -10 -19 -21 -13 -24 9 -6 20 3 36 31 10 16 6 15 -23
-7z"/>
<path d="M6850 2814 c-14 -4 -44 -54 -36 -61 5 -6 66 47 66 58 0 9 -4 10 -30
3z"/>
<path d="M5672 2670 c0 -14 2 -19 5 -12 2 6 2 18 0 25 -3 6 -5 1 -5 -13z"/>
<path d="M4870 2678 c0 -4 13 -26 29 -50 16 -24 45 -77 65 -118 20 -41 51 -97
70 -125 18 -27 48 -74 66 -102 30 -50 82 -103 100 -103 4 0 -4 13 -18 29 -15
16 -44 63 -65 104 -22 42 -54 93 -71 114 -18 21 -50 69 -71 107 -21 38 -44 76
-51 85 -7 9 -22 27 -33 41 -11 14 -20 22 -21 18z"/>
<path d="M4670 2621 c0 -10 11 -35 25 -55 14 -20 25 -40 25 -44 0 -4 16 -30
36 -57 20 -28 49 -76 65 -107 16 -31 45 -70 64 -85 19 -15 35 -34 35 -40 0 -7
9 -13 20 -13 17 0 19 4 14 26 -6 25 -5 26 20 20 25 -6 27 -5 20 16 -3 13 -11
25 -16 27 -6 2 -25 17 -44 33 -21 19 -34 25 -34 16 0 -7 9 -20 20 -28 21 -15
27 -40 10 -40 -5 0 -15 10 -21 23 -7 12 -17 25 -24 29 -6 4 -25 26 -40 50 -16
24 -34 48 -40 53 -25 23 -54 73 -64 110 -13 49 -37 85 -57 85 -8 0 -14 -8 -14
-19z"/>
<path d="M4520 2625 c0 -5 5 -17 10 -25 5 -8 10 -10 10 -5 0 6 -5 17 -10 25
-5 8 -10 11 -10 5z"/>
<path d="M6550 2589 c-7 -11 -10 -23 -7 -25 2 -2 9 7 15 21 14 30 7 33 -8 4z"/>
<path d="M6477 2478 c-25 -35 -62 -76 -83 -93 -22 -16 -56 -47 -77 -70 l-38
-40 27 -7 c35 -9 59 4 72 41 6 17 28 49 49 73 21 24 46 52 55 63 18 21 52 95
44 95 -2 0 -24 -28 -49 -62z"/>
<path d="M3342 2229 c-10 -26 -4 -109 7 -109 9 0 31 61 31 87 0 11 -7 26 -15
33 -12 10 -16 8 -23 -11z"/>
<path d="M5040 2210 c0 -11 33 -30 52 -30 7 1 3 9 -11 20 -25 22 -41 26 -41
10z"/>
<path d="M3878 2173 c-8 -29 8 -54 21 -33 6 8 6 17 2 20 -4 3 -10 12 -13 20
-3 10 -6 9 -10 -7z"/>
<path d="M7123 2055 c-18 -18 -33 -37 -33 -43 0 -14 -32 -85 -42 -92 -4 -3 -3
-11 1 -19 6 -10 11 -9 25 4 9 9 16 21 16 26 0 5 8 9 19 9 13 0 23 14 36 55 9
30 21 57 26 61 13 8 11 21 -3 26 -7 3 -28 -9 -45 -27z"/>
<path d="M4710 2074 c0 -4 16 -22 35 -41 39 -38 47 -23 10 20 -22 25 -45 36
-45 21z"/>
<path d="M3281 2014 c0 -11 3 -14 6 -6 3 7 2 16 -1 19 -3 4 -6 -2 -5 -13z"/>
<path d="M6953 1969 c-6 -8 -14 -26 -18 -39 -3 -14 -16 -30 -28 -35 -12 -6
-24 -21 -27 -34 -9 -38 -26 -35 -27 4 -1 39 -13 59 -21 36 -9 -27 -66 -71 -83
-66 -10 3 -20 1 -24 -5 -4 -6 -14 -8 -24 -5 -11 3 -22 -5 -34 -28 -10 -18 -27
-38 -38 -45 -19 -12 -20 -11 -14 10 4 13 10 29 12 36 9 23 -14 12 -28 -14 -7
-15 -39 -46 -70 -70 -71 -54 -110 -100 -102 -120 3 -8 17 -21 32 -28 24 -13
29 -12 61 15 19 16 44 29 56 29 12 0 27 7 34 15 7 8 19 15 26 15 8 0 22 9 31
20 13 15 25 19 49 14 26 -5 34 -1 48 21 10 15 23 24 31 21 9 -3 22 10 37 35
12 22 27 38 34 35 7 -3 16 4 19 15 8 24 35 25 35 2 0 -15 3 -15 22 4 23 24 37
97 28 147 -4 24 -7 27 -17 15z"/>
<path d="M4594 1416 c-3 -14 -12 -26 -20 -26 -8 0 -14 -4 -14 -8 0 -4 16 -6
35 -4 31 4 35 7 29 26 -11 35 -23 40 -30 12z"/>
<path d="M4645 1400 c-3 -5 1 -10 10 -10 9 0 13 5 10 10 -3 6 -8 10 -10 10 -2
0 -7 -4 -10 -10z"/>
<path d="M4527 1376 c-3 -8 1 -17 10 -20 20 -8 25 -3 17 18 -8 20 -20 21 -27
2z"/>
<path d="M6631 1283 c75 -123 62 -113 132 -113 l62 1 -40 21 c-22 11 -56 38
-76 60 -31 34 -79 68 -96 68 -3 0 6 -17 18 -37z"/>
<path d="M4516 1188 c1 -70 -2 -100 -14 -120 -20 -34 -26 -35 -69 -2 -33 25
-34 28 -28 75 8 56 0 76 -21 58 -9 -7 -14 -31 -14 -65 0 -48 3 -55 33 -78 30
-23 44 -26 113 -26 55 0 95 -6 132 -20 29 -11 62 -20 74 -20 l22 0 -21 15
c-12 9 -25 31 -29 50 -3 18 -17 48 -30 66 -13 18 -24 38 -24 45 0 19 -26 64
-33 57 -4 -3 -25 8 -46 25 -22 18 -42 32 -44 32 -2 0 -2 -42 -1 -92z m107 -58
c3 -11 1 -18 -4 -14 -5 3 -9 12 -9 20 0 20 7 17 13 -6z"/>
<path d="M4730 1221 c11 -40 25 -63 49 -85 18 -17 20 -26 15 -68 -6 -47 -4
-51 29 -48 1 0 25 -6 52 -15 28 -8 59 -15 70 -15 l20 1 -20 11 c-57 32 -98 75
-120 125 -22 50 -80 123 -97 123 -3 0 -3 -13 2 -29z"/>
<path d="M4980 1162 c0 -5 10 -17 21 -28 22 -19 22 -19 10 3 -12 24 -31 39
-31 25z"/>
<path d="M5030 1101 c0 -30 32 -61 65 -62 78 -4 86 10 25 41 -75 38 -90 42
-90 21z"/>
</g>
</svg>
